<svg xmlns="http://www.w3.org/2000/svg" width="203" height="82" fill="none"><g fill="#183717"><path d="M89.446 27.752h2.818v6.108h4.827v-6.108h2.819v14.952H97.09v-6.153h-4.827v6.153h-2.818zM110.08 39.5h-5.085l-.727 3.204h-2.949l3.566-14.952h5.299l3.566 14.952h-2.949l-.727-3.204zm-4.486-2.69h3.866l-1.73-7.65h-.385zM120.44 40.44q.81 0 1.335-.245.524-.247.813-.662.288-.419.395-.961.106-.543.106-1.122v-.385h2.819v.385q0 2.67-1.401 4.112-1.398 1.443-4.07 1.442c-1.78 0-3.062-.52-4.059-1.56q-1.494-1.56-1.495-4.552v-3.331q0-1.43.386-2.575.384-1.145 1.109-1.923a4.84 4.84 0 0 1 1.751-1.195c.682-.28 1.454-.416 2.308-.416s1.667.128 2.35.386a4.54 4.54 0 0 1 1.72 1.11 4.7 4.7 0 0 1 1.048 1.75c.234.682.353 1.454.353 2.308v.386h-2.819v-.386q.001-.534-.127-1.068a2.8 2.8 0 0 0-.427-.961 2.2 2.2 0 0 0-.813-.695q-.513-.266-1.282-.267-.704 0-1.216.267a2.5 2.5 0 0 0-.855.727 3.1 3.1 0 0 0-.501 1.068q-.16.611-.16 1.27v3.76q0 .725.148 1.334.147.611.469 1.056.32.447.842.695.524.245 1.27.246zM131.186 42.704h-2.819V27.752h2.819v6.13h.62l3.952-6.13h3.183v.127l-4.613 7.156v.386l4.871 7.156v.127h-3.311l-4.079-6.129h-.62v6.13zM140.733 27.752h10.766v2.69h-3.972v12.262h-2.819V30.443h-3.972v-2.691zM153.464 33.56q-.001-2.905 1.462-4.506 1.465-1.602 4.047-1.602c1.721 0 3.073.534 4.047 1.602q1.463 1.603 1.462 4.507v3.331q-.001 2.99-1.462 4.552-1.465 1.558-4.047 1.56c-1.721 0-3.074-.52-4.047-1.56q-1.463-1.56-1.462-4.552zm5.512 6.88q.77 0 1.281-.245.514-.245.834-.695t.448-1.068q.129-.619.128-1.367v-3.673q-.001-.705-.149-1.324A3.1 3.1 0 0 0 161.05 31a2.3 2.3 0 0 0-.834-.715q-.511-.267-1.24-.267c-.487 0-.896.09-1.24.267q-.513.267-.834.715-.322.45-.469 1.069a5.6 5.6 0 0 0-.148 1.323v3.673q-.001.748.127 1.367.13.62.448 1.068.322.45.834.694.512.247 1.282.247M166.28 40.014h1.409v-9.571h-1.409v-2.691h6.557q1.067 0 1.89.3a4.1 4.1 0 0 1 1.388.812q.566.511.854 1.229.289.715.288 1.548v.255q.001 1.282-.715 2.05-.717.771-1.804 1.068v.386q1.09.298 1.804 1.08.716.78.715 2.062v.255q0 .832-.288 1.549-.288.715-.854 1.24-.566.524-1.388.822-.823.299-1.89.3h-6.557v-2.694m4.231-6.154h2.05q.898 0 1.453-.373.556-.376.555-1.27v-.128c0-.6-.184-1.02-.555-1.27q-.555-.373-1.453-.373h-2.05v3.417zm0 6.154h2.05q.898 0 1.453-.386.556-.383.555-1.282v-.127q0-.9-.555-1.282-.555-.384-1.453-.386h-2.05v3.4619999999999997M179.909 27.752h9.441v2.69h-6.622v3.418h6.367v2.691h-6.367v3.46h6.877v2.69h-9.699V27.75zM202.614 42.704h-2.818V38.22q0-.513-.267-.834-.268-.32-.887-.32h-3.246v5.64h-2.818V27.751h5.726q1.152 0 2.029.32.876.321 1.462.887.589.566.896 1.314.31.748.309 1.603v.513q0 .918-.492 1.72-.494.802-1.517 1.229v.386q.747.085 1.187.575.438.491.439 1.24v5.168zm-7.218-8.33h2.691c.682 0 1.205-.16 1.561-.481q.534-.48.534-1.356v-.255q0-.747-.534-1.293t-1.561-.546h-2.691zM89.446 48.044h9.57v2.691h-6.749v3.418h6.622v2.69h-6.622v6.154H89.45V48.044zM102.177 48.045h9.44v2.69h-6.622v3.418h6.367v2.691h-6.367v3.46h6.877v2.69h-9.698V48.042zM122.383 52.617q0-.899-.694-1.561-.695-.663-1.955-.662-1.069 0-1.688.44a1.38 1.38 0 0 0-.62 1.186q0 .383.148.694.15.311.522.555.374.244.982.44.61.191 1.549.361 2.349.428 3.59 1.43 1.239 1.004 1.24 2.97v.255c0 .697-.125 1.33-.374 1.89a3.94 3.94 0 0 1-1.08 1.442 4.9 4.9 0 0 1-1.709.92q-1.005.32-2.263.32-1.474-.001-2.596-.415-1.122-.418-1.869-1.154a4.9 4.9 0 0 1-1.134-1.73 6 6 0 0 1-.385-2.169v-.64h2.818v.513c0 .895.261 1.614.78 2.148q.78.8 2.424.8 1.281.001 1.902-.554.619-.557.62-1.323 0-.365-.128-.695a1.5 1.5 0 0 0-.448-.599q-.321-.267-.875-.48a7.6 7.6 0 0 0-1.409-.363 14.4 14.4 0 0 1-2.071-.5 5.8 5.8 0 0 1-1.635-.823 3.56 3.56 0 0 1-1.079-1.281q-.385-.77-.386-1.881v-.128q0-.917.374-1.697t1.047-1.356q.671-.576 1.623-.896.949-.32 2.124-.32 1.326 0 2.35.374 1.025.373 1.72 1.014.695.642 1.048 1.475.352.834.353 1.75v.769h-2.819v-.514zM127.296 48.044h10.767v2.691h-3.973v12.262h-2.818V50.735h-3.973v-2.69zM44.947 54.322H18.246v8.9h26.701zM62.718 27.639h-8.9V63.24h8.9zM36.195 18.72h-8.9v35.602h8.9zM27.295 27.621h-8.9v8.9h8.9zM53.818 36.54h-8.9v8.9h8.9z"/><path d="M71.618 54.34h-8.9v8.9h8.9zM18.305 81.338l-9.108-8.96V9.968h62.407l9.108 8.96V.644H0v80.712z"/></g></svg>